<svg width="20" height="20" fill="none" xmlns="http://www.w3.org/2000/svg"><path fill-rule="evenodd" clip-rule="evenodd" d="M19.788 5.761c.177.23.243.505.199.827l-.839 5.006a.955.955 0 01-.342.643 1.013 1.013 0 01-.673.253H5.91l-.243 1.424h11.65c.28 0 .522.103.728.31.206.207.309.463.309.77 0 .306-.103.562-.309.769a.995.995 0 01-.728.31H4.432c-.31 0-.574-.13-.795-.39a1.147 1.147 0 01-.242-.896l.551-3.124-.838-8.773-2.383-.78a.987.987 0 01-.607-.529A1.183 1.183 0 01.041.754 1 1 0 01.559.123a1.04 1.04 0 01.784-.08l3.044 1.01a.93.93 0 01.475.345c.125.168.202.36.232.574l.176 1.745 13.812 1.608a.976.976 0 01.706.436zM5.998 16.67c.441 0 .817.16 1.125.482.31.322.464.712.464 1.171 0 .46-.155.854-.464 1.183-.308.33-.684.494-1.125.494-.441 0-.816-.165-1.125-.494a1.668 1.668 0 01-.463-1.183c0-.459.154-.85.463-1.17a1.502 1.502 0 011.125-.483zm10.547.482a1.502 1.502 0 00-1.126-.482c-.44 0-.816.16-1.125.482a1.628 1.628 0 00-.463 1.171c0 .46.154.854.463 1.183.31.33.684.494 1.125.494.442 0 .817-.165 1.126-.494.309-.329.463-.723.463-1.183 0-.459-.154-.85-.463-1.17z" fill="#02131F"/></svg>