<svg width="116" height="24" fill="none" xmlns="http://www.w3.org/2000/svg"><rect width="116" height="24" rx="12" fill="#6AB8EE"/><path d="M8 18.5V6h8c3 0 4.5 9-1 9H8.5m15 3.5V6h8c3 0 4.5 9-1 9H24l10 3.5m64.5 0V6h8c3 0 4.5 9-1 9H99l10 3.5m-56.505-6.26C52.357 8.65 49.452 6 46 6s-6.357 2.65-6.495 6.24C39.36 15.97 42.413 19 46 19s6.639-3.03 6.495-6.76zM56.5 19V6l7 12.536L70.5 6v13M93 6v12.5m-5.5.5v-4.5M76 19v-4.5m0 0v-3c0-5 11.5-5 11.5-5v8m-11.5 0h11.5" stroke="#fff" stroke-width="3" stroke-linecap="round" stroke-linejoin="round"/></svg>