<svg width="17" height="17" fill="none" xmlns="http://www.w3.org/2000/svg"><path d="M16.619 13.446l-2.626-2.631c-.522-.522-1.388-.507-1.93.036l-1.322 1.325-.261-.145c-.835-.464-1.979-1.1-3.182-2.306-1.206-1.21-1.841-2.357-2.305-3.195-.05-.088-.096-.174-.143-.255l.888-.889.437-.438c.542-.543.556-1.41.035-1.934L3.584.382c-.521-.523-1.388-.507-1.93.036l-.74.746.02.02a4.291 4.291 0 00-.61 1.078 4.51 4.51 0 00-.27 1.093c-.347 2.88.966 5.513 4.53 9.086 4.927 4.937 8.897 4.564 9.069 4.546a4.43 4.43 0 001.094-.275c.39-.153.755-.36 1.071-.609l.016.014.75-.735c.54-.543.556-1.412.035-1.936z" fill="#6AB8EE"/></svg>